# xmcd CD database file generated by Grip 2.92
# 
# Track frame offsets:
#       150
#       12981
#       29303
#       49134
#       75827
# 
# Disc length: 1470 seconds
# 
# Revision: 3
# Processed by: cddbd v1.4b42PL0 Copyright (c) Steve Scherf et al.
# Submitted via: Grip 2.92
# 
DISCID=2c05bc05
DTITLE=Noah and the Stratocats - Live at Gilly's
DYEAR=1900
DGENRE=
TTITLE0=Woke Up Without You
TTITLE1=Slow Down
TTITLE2=Highway Song
TTITLE3=If You Ever Get Lonesome
TTITLE4=Ol' Miss. Yankee
EXTD=
EXTT0=
EXTT1=
EXTT2=
EXTT3=
EXTT4=
PLAYORDER=
